HIERARCHY
ROOT hip
{
	OFFSET 0.000000 0.000000 0.000000 
	CHANNELS 6 Xposition Yposition Zposition Xrotation Zrotation Yrotation
	JOINT abdomen
	{
		OFFSET 0.000000 3.402643 0.000000 
		CHANNELS 3 Xrotation Zrotation Yrotation
		JOINT chest
		{
			OFFSET 0.000000 8.438565 -0.680529 
			CHANNELS 3 Xrotation Zrotation Yrotation
			JOINT neck
			{
				OFFSET 0.000000 10.207942 -0.272212 
				CHANNELS 3 Xrotation Zrotation Yrotation
				JOINT head
				{
					OFFSET 0.000000 3.130431 0.000000 
					CHANNELS 3 Xrotation Zrotation Yrotation
					End Site
					{
						OFFSET 0.000000 3.130435 0.000000 
					}
				}
			}
			JOINT lCollar
			{
				OFFSET 3.470700 6.669187 -0.816635 
				CHANNELS 3 Yrotation Zrotation Xrotation
				JOINT lShldr
				{
					OFFSET 3.198488 0.000000 0.000000 
					CHANNELS 3 Zrotation Yrotation Xrotation
					JOINT lForeArm
					{
						OFFSET 10.139888 0.000000 0.000000 
						CHANNELS 3 Yrotation Zrotation Xrotation
						JOINT lHand
						{
							OFFSET 8.370511 0.000000 0.000000 
							CHANNELS 3 Zrotation Yrotation Xrotation
							End Site
							{
								OFFSET 4.083176 0.000000 0.000000 
							}
						}
					}
				}
			}
			JOINT rCollar
			{
				OFFSET -3.470700 6.669187 -0.816635 
				CHANNELS 3 Yrotation Zrotation Xrotation
				JOINT rShldr
				{
					OFFSET -3.198488 0.000000 0.000000 
					CHANNELS 3 Zrotation Yrotation Xrotation
					JOINT rForeArm
					{
						OFFSET -10.139888 0.000000 0.000000 
						CHANNELS 3 Yrotation Zrotation Xrotation
						JOINT rHand
						{
							OFFSET -8.370511 0.000000 0.000000 
							CHANNELS 3 Zrotation Yrotation Xrotation
							End Site
							{
								OFFSET -4.083176 0.000000 0.000000 
							}
						}
					}
				}
			}
		}
	}
	JOINT lThigh
	{
		OFFSET 5.308129 -1.633274 1.361059 
		CHANNELS 3 Xrotation Zrotation Yrotation
		JOINT lShin
		{
			OFFSET -2.041588 -20.007561 0.000000 
			CHANNELS 3 Xrotation Zrotation Yrotation
			JOINT lFoot
			{
				OFFSET 0.000000 -19.190928 -1.224953 
				CHANNELS 3 Xrotation Yrotation Zrotation
				End Site
				{
					OFFSET 0.000000 -2.449906 4.627600 
				}
			}
		}
	}
	JOINT rThigh
	{
		OFFSET -5.308129 -1.633274 1.361059 
		CHANNELS 3 Xrotation Zrotation Yrotation
		JOINT rShin
		{
			OFFSET 2.041588 -20.007561 0.000000 
			CHANNELS 3 Xrotation Zrotation Yrotation
			JOINT rFoot
			{
				OFFSET 0.000000 -19.190928 -1.224953 
				CHANNELS 3 Xrotation Yrotation Zrotation
				End Site
				{
					OFFSET 0.000000 -2.449906 4.627600 
				}
			}
		}
	}
}
MOTION
Frames: 13
Frame Time: 0.011111
-0.744160 49.721260 -2.132936 159.392807 179.888000 6.543037 -2.140629 -0.598385 0.596117 -16.293095 0.482824 -0.441467 -21.154997 0.102054 1.396644 55.350845 4.560075 -3.331958 -5.788594 -15.737329 -1.465587 -61.355427 -8.809741 -3.929199 -54.943684 8.661894 10.198312 8.524705 12.647240 -53.733776 7.611086 14.174596 -1.900835 55.244659 7.703211 -7.420244 37.539486 -3.828219 3.559590 -8.534408 -12.637552 32.835796 -31.454493 -5.321981 8.374394 42.456928 -4.488968 -6.389681 -42.701836 4.873576 4.799156 -16.268150 -7.674343 -22.651171 59.154213 2.832288 8.050517 24.838524 -24.676685 12.239399 
-0.748320 49.725101 -2.133256 159.458847 179.417984 6.343321 -2.127656 0.068863 0.716363 -16.302746 0.404288 -0.435019 -21.114847 0.054805 1.466377 55.196579 4.443302 -3.193979 -5.788594 -15.737329 -1.465587 -61.623211 -8.758406 -3.580454 -54.733231 8.631314 10.109313 8.524705 12.647240 -54.358776 7.611086 14.174596 -1.900835 55.454742 7.807226 -8.574397 37.419392 -3.783154 3.515943 -8.534408 -12.637552 32.396343 -31.607670 -4.755345 8.225299 42.496227 -4.488834 -6.393027 -42.792351 4.767248 4.734305 -16.120596 -7.077401 -22.585838 59.095310 2.842083 8.051084 24.728497 -25.154186 12.464277 
-0.751201 49.727024 -2.147659 159.523132 179.383057 6.234415 -2.107266 0.132426 0.762063 -16.361378 0.432723 -0.424495 -21.045038 0.141201 1.504803 55.114811 4.239236 -3.168670 -5.788594 -15.737329 -1.465587 -61.876850 -8.843134 -3.722864 -54.119755 8.523354 9.842069 8.524705 12.647240 -55.599010 7.611086 14.174596 -1.900835 55.700603 7.777909 -9.346581 37.339142 -3.750612 3.488670 -8.534408 -12.637552 32.386578 -31.545740 -4.677578 8.240372 42.486740 -4.488818 -6.382501 -42.780361 5.106405 5.016197 -16.000971 -7.026014 -22.628120 59.096245 2.832149 8.026495 24.719713 -25.326870 12.544455 
-0.740638 49.727345 -2.135497 159.445938 179.452164 6.001704 -2.095632 -0.008064 0.958492 -16.371252 0.518124 -0.362496 -21.210531 0.153111 1.524738 55.080696 4.240955 -3.025427 -5.788594 -15.737329 -1.465587 -62.022549 -9.123075 -3.765981 -53.265850 8.371401 9.491121 8.524705 12.647240 -56.809948 7.611086 14.174596 -1.900835 55.959610 7.799468 -9.680786 37.499664 -3.815604 3.543313 -8.534408 -12.637552 32.923683 -31.673178 -4.687149 8.247313 42.486740 -4.488819 -6.382501 -42.973122 5.348998 5.277357 -16.187498 -7.027203 -22.481741 59.144104 2.832290 8.059354 24.829636 -25.173986 12.507411 
-0.734237 49.732464 -2.129096 159.317032 179.691910 5.720047 -2.123836 -0.322828 1.121301 -16.234734 0.682368 -0.295663 -21.561848 0.090841 1.556962 55.073074 4.173707 -2.887338 -5.788594 -15.737329 -1.465587 -62.265884 -9.305037 -3.538721 -52.993084 8.323776 9.374186 8.524705 12.647240 -57.405651 7.611086 14.174596 -1.900835 56.086994 8.178989 -10.698009 37.269054 -3.725051 3.468318 -8.534408 -12.637552 32.952980 -31.740831 -4.843446 8.336261 42.398670 -4.488855 -6.365196 -43.112862 5.397282 5.357780 -16.547949 -7.231163 -22.183825 59.252205 2.822554 8.053107 25.229952 -24.792692 12.438223 
-0.737437 49.752953 -2.131336 159.261414 179.841797 5.559165 -2.133246 -0.500866 1.201791 -16.215302 0.769444 -0.272151 -21.755571 0.212752 1.586432 55.129559 3.947952 -2.798885 -5.788594 -15.737329 -1.465587 -62.516510 -9.232538 -3.297434 -53.035091 8.331798 9.394534 8.524705 12.647240 -57.874405 7.611086 14.174596 -1.900835 56.227276 8.530614 -12.712374 36.788406 -3.535236 3.312454 -8.534408 -12.637552 32.044777 -31.663944 -4.951059 8.436415 42.279976 -4.498650 -6.358543 -42.931496 5.370714 5.281458 -16.842358 -7.438080 -22.001974 59.340759 2.812581 8.045140 25.425362 -24.860447 12.540776 
-0.741279 49.771515 -2.134217 159.231934 179.869827 5.560344 -2.172458 -0.558425 1.201964 -16.293453 0.788586 -0.272390 -21.676340 0.340902 1.596886 55.038479 3.754557 -2.787628 -5.788594 -15.737329 -1.465587 -62.691048 -9.329001 -3.601514 -52.582108 8.241158 9.198435 8.524705 12.647240 -58.850960 7.611086 14.174596 -1.900835 56.385952 8.500782 -13.418400 36.638229 -3.467403 3.250070 -8.534408 -12.637552 32.406109 -31.600498 -4.960408 8.488235 42.180439 -4.518101 -6.347381 -42.713158 5.348876 5.156359 -16.940271 -7.575112 -22.097834 59.399090 2.811202 8.058719 25.416613 -25.050272 12.648925 
-0.745439 49.773758 -2.142858 159.172623 179.901932 5.543255 -2.270272 -0.619796 1.251328 -16.322695 0.739260 -0.265036 -21.646969 0.398064 1.584152 55.022736 3.849578 -2.741262 -5.788594 -15.737329 -1.465587 -62.713745 -9.390244 -3.555780 -52.131496 8.158104 9.019843 8.524705 12.647240 -59.290421 7.611086 14.174596 -1.900835 56.699558 8.549006 -14.440457 36.568268 -3.441178 3.230436 -8.534408 -12.637552 32.415874 -31.626596 -4.980406 8.514892 42.140800 -4.518228 -6.353698 -42.639992 5.461884 5.228109 -17.000715 -7.674779 -22.206749 59.418636 2.811239 8.060307 25.224209 -25.163231 12.637177 
-0.743839 49.780796 -2.149260 159.206512 179.921173 5.392573 -2.241095 -0.639904 1.272335 -16.459385 0.708974 -0.258171 -21.606384 0.440198 1.640274 55.158306 3.989097 -2.587491 -5.788594 -15.737329 -1.465587 -62.768620 -9.238791 -3.281160 -51.868526 8.101939 8.907837 8.524705 12.647240 -59.280651 7.611086 14.174596 -1.900835 56.978661 8.563607 -15.245804 36.538048 -3.428016 3.225951 -8.534408 -12.637552 32.279156 -31.632864 -4.950731 8.461599 42.150974 -4.518033 -6.344801 -42.869118 5.333488 5.217171 -16.981232 -7.674826 -22.177818 59.438404 2.802871 8.057333 25.053181 -25.480650 12.758298 
-0.756962 49.791359 -2.147019 159.302811 179.568375 5.245536 -2.190220 -0.139101 1.387665 -16.527456 0.493607 -0.257292 -21.478642 0.468672 1.668811 55.105461 4.077981 -2.491199 -5.788594 -15.737329 -1.465587 -62.789104 -9.044529 -2.975304 -51.806019 8.091675 8.885391 8.524705 12.647240 -59.153702 7.611086 14.174596 -1.900835 57.224281 8.613550 -15.941247 36.528294 -3.428660 3.225080 -8.534408 -12.637552 32.230328 -31.681313 -4.560319 8.336562 42.200577 -4.508306 -6.355223 -43.010647 5.284660 5.234525 -16.862585 -7.282619 -22.285439 59.427952 2.802894 8.075802 25.548376 -25.260530 12.782322 
-0.803052 49.788475 -2.125895 159.335541 179.361786 5.302446 -2.112031 0.247089 1.446575 -16.566074 0.200302 -0.258622 -21.362125 0.503279 1.632301 54.874355 4.163630 -2.466675 -5.788594 -15.737329 -1.465587 -62.747150 -8.981305 -2.551352 -51.742424 8.075287 8.856766 8.524705 12.647240 -58.987679 7.611086 14.174596 -1.900835 57.473568 8.634513 -16.000330 36.618462 -3.469298 3.258059 -8.534408 -12.637552 32.894390 -31.706594 -4.501960 8.163642 42.260113 -4.501189 -6.357796 -43.226234 5.253601 5.310637 -16.772675 -7.290121 -22.663717 59.447960 2.811289 8.062687 26.211048 -24.673603 12.696926 
-0.762083 49.791679 -2.106050 159.419403 179.542526 5.232679 -1.897667 -0.123698 1.437449 -16.449184 0.395242 -0.231127 -21.616121 0.431428 1.643920 54.886459 4.186651 -2.394030 -5.788594 -15.737329 -1.465587 -62.740158 -9.324230 -2.266120 -51.407429 8.008271 8.723419 8.524705 12.647240 -58.753307 7.611086 14.174596 -1.900835 57.554569 8.989012 -16.769690 36.478462 -3.408319 3.203335 -8.534408 -12.637552 32.699078 -31.658350 -4.609294 8.123344 42.279976 -4.498650 -6.358544 -43.422977 5.147126 5.303722 -16.810452 -7.327487 -22.514797 59.487183 2.793077 8.065557 25.933451 -25.015516 12.775595 
-0.750881 49.785278 -2.076284 159.459595 179.541519 5.272975 -1.741653 -0.127125 1.325944 -16.254007 0.494008 -0.235419 -21.908512 0.380909 1.679995 54.822685 4.165238 -2.214126 -5.788594 -15.737329 -1.465587 -62.746136 -9.727406 -1.904010 -51.061840 7.934876 8.580736 8.524705 12.647240 -58.001358 7.611086 14.174596 -1.900835 57.495411 9.454112 -17.706781 36.178638 -3.287937 3.112064 -8.534408 -12.637552 31.956890 -31.646103 -4.570068 8.238504 42.308304 -4.508315 -6.374255 -43.284763 5.246485 5.333740 -16.657642 -7.263127 -22.501852 59.477409 2.793059 8.064763 24.622919 -26.095148 12.922477 
